<?xml version="1.0" standalone="no"?>
<!DOCTYPE svg PUBLIC "-//W3C//DTD SVG 20010904//EN"
 "http://www.w3.org/TR/2001/REC-SVG-20010904/DTD/svg10.dtd">
<svg version="1.0" xmlns="http://www.w3.org/2000/svg"
 width="192.000000pt" height="192.000000pt" viewBox="0 0 192.000000 192.000000"
 preserveAspectRatio="xMidYMid meet">
<metadata>
Created by potrace 1.14, written by Peter Selinger 2001-2017
</metadata>
<g transform="translate(0.000000,192.000000) scale(0.100000,-0.100000)"
fill="#000000" stroke="none">
<path d="M1412 1518 c-14 -19 -52 -108 -52 -124 0 -8 -8 -13 -17 -11 -24 4
-44 17 -39 25 2 4 -1 15 -8 24 -11 15 -14 13 -25 -18 l-12 -34 -85 2 c-74 3
-84 1 -84 -14 0 -12 8 -18 25 -18 38 0 56 -38 60 -122 3 -80 -11 -118 -44
-118 -14 0 -22 12 -31 50 -7 28 -17 50 -23 50 -6 0 -7 3 -4 7 4 3 -8 17 -25
29 -17 13 -33 23 -34 21 -2 -2 15 -99 32 -179 4 -17 2 -28 -5 -28 -10 0 -6
-19 16 -70 3 -8 7 -19 7 -23 1 -4 7 -12 15 -16 18 -12 5 -32 -16 -24 -11 4
-14 3 -9 -5 4 -7 9 -30 12 -53 3 -23 12 -48 20 -56 19 -20 18 -35 -3 -32 -10
1 -21 1 -26 0 -11 -1 21 -61 33 -61 6 0 10 -10 10 -22 0 -12 -3 -18 -7 -15 -3
4 -12 2 -19 -4 -19 -15 20 -50 57 -51 17 -1 29 -6 29 -15 0 -7 -4 -13 -9 -13
-5 0 -12 -15 -15 -33 -4 -23 -15 -38 -33 -46 -46 -21 -12 -31 107 -32 246 -2
239 -3 237 29 -1 15 -6 30 -12 34 -6 5 -5 15 3 29 10 15 11 24 3 32 -14 14
-14 54 -1 62 6 4 8 16 4 27 -3 11 -7 30 -8 42 -2 13 -6 28 -9 34 -11 16 3 42
22 42 10 0 24 -12 31 -27 8 -16 31 -57 51 -93 82 -145 80 -140 68 -161 -6 -12
-17 -18 -25 -15 -9 3 -14 -1 -14 -14 0 -22 -13 -21 194 -21 127 -1 158 9 118
37 -37 26 -62 56 -88 106 -13 26 -28 49 -34 53 -6 4 -8 11 -5 16 4 5 1 9 -6 9
-7 0 -9 3 -6 7 4 3 -1 16 -12 27 -10 12 -36 53 -57 91 -21 39 -42 72 -46 73
-4 2 -8 8 -8 14 0 5 -8 22 -19 36 -33 47 -36 89 -10 143 12 27 31 51 41 55 10
3 18 12 18 20 0 7 9 19 20 26 11 7 20 18 20 24 0 15 76 94 92 95 7 1 16 1 21
0 4 0 7 4 7 9 0 6 12 15 27 21 19 7 23 13 15 21 -15 15 -270 17 -276 1 -6 -15
3 -23 25 -23 27 0 57 -37 54 -68 -3 -34 -44 -104 -56 -96 -5 3 -9 -2 -9 -11 0
-22 -48 -91 -76 -110 -13 -8 -24 -21 -24 -28 0 -14 -58 -52 -67 -43 -3 3 -5
18 -5 33 0 15 -7 32 -15 38 -13 10 -13 13 1 24 12 11 14 17 5 27 -9 11 -8 14
5 14 9 0 18 11 22 28 3 15 10 37 15 50 5 13 9 24 9 25 0 1 -15 2 -32 2 -22 0
-32 4 -30 13 1 8 4 26 6 40 5 40 17 62 31 62 19 0 30 21 15 30 -7 4 -12 35
-13 79 0 39 -1 71 -3 71 -1 0 -6 -6 -12 -12z"/>
<path d="M127 1374 c-13 -14 -7 -22 24 -28 17 -3 28 -10 24 -16 -3 -6 0 -7 10
-4 32 13 52 -99 31 -181 -2 -11 -5 -23 -5 -27 -2 -17 -21 -7 -21 11 0 29 -28
34 -42 8 -7 -12 -11 -28 -10 -34 2 -7 -2 -13 -9 -13 -6 0 -9 -7 -5 -15 3 -10
-1 -15 -14 -15 -21 0 -36 -16 -20 -22 5 -1 11 -17 13 -33 2 -17 9 -40 15 -51
8 -15 8 -24 0 -32 -8 -8 -8 -15 -1 -24 6 -7 9 -23 8 -35 -1 -13 2 -23 6 -23
13 0 38 -55 43 -95 4 -35 3 -37 -20 -31 -14 4 -24 2 -24 -4 0 -6 -21 -9 -55
-6 -60 4 -66 0 -34 -28 14 -12 20 -25 16 -42 -3 -17 0 -24 12 -25 9 0 25 -3
36 -5 11 -3 28 -5 38 -5 14 0 15 -4 7 -19 -13 -24 3 -35 30 -20 17 9 20 8 20
-10 0 -12 -4 -19 -9 -16 -15 9 -42 -5 -39 -20 2 -11 50 -15 242 -20 132 -3
243 -7 248 -10 5 -3 16 0 24 7 13 11 15 10 14 -2 -4 -29 1 -37 27 -43 27 -7
47 9 35 29 -17 27 -14 33 56 92 37 31 71 110 78 183 3 25 6 153 8 284 2 167 6
241 14 244 6 2 9 9 6 17 -3 7 4 18 15 25 12 6 21 8 21 4 0 -4 9 3 20 16 11 13
20 27 20 32 0 5 -59 8 -131 7 -93 -1 -129 -4 -126 -12 2 -7 13 -16 25 -22 12
-5 22 -13 22 -17 0 -4 6 -5 14 -2 15 6 57 -33 54 -50 0 -6 2 -18 5 -26 8 -16
3 -480 -5 -520 -3 -14 -13 -41 -23 -60 -11 -19 -18 -38 -17 -43 1 -4 -8 -17
-20 -29 -16 -16 -35 -22 -75 -23 -30 -1 -56 2 -59 6 -3 5 -14 9 -24 9 -28 0
-34 19 -14 41 9 10 12 19 6 19 -15 0 -10 51 6 68 6 7 12 20 12 28 0 11 -7 9
-32 -6 -39 -24 -66 -26 -74 -5 -4 8 -11 12 -18 8 -6 -3 -7 -2 -3 3 5 5 12 9
15 10 28 4 48 22 48 44 0 46 -27 57 -73 32 -33 -18 -45 -15 -37 11 4 12 9 24
13 27 8 7 13 27 18 80 2 25 8 57 13 71 7 22 2 32 -28 65 -36 38 -36 40 -37
127 -1 74 2 91 18 105 11 9 22 16 26 15 12 -5 61 22 61 33 0 13 -401 20 -413
8z"/>
<path d="M1095 1270 c3 -5 8 -10 11 -10 2 0 4 5 4 10 0 6 -5 10 -11 10 -5 0
-7 -4 -4 -10z"/>
<path d="M470 1144 c0 -8 5 -12 10 -9 6 3 10 10 10 16 0 5 -4 9 -10 9 -5 0
-10 -7 -10 -16z"/>
<path d="M1470 1150 c0 -5 5 -10 11 -10 5 0 7 5 4 10 -3 6 -8 10 -11 10 -2 0
-4 -4 -4 -10z"/>
<path d="M1430 1069 c0 -5 5 -7 10 -4 6 3 10 8 10 11 0 2 -4 4 -10 4 -5 0 -10
-5 -10 -11z"/>
<path d="M140 759 c0 -5 5 -7 10 -4 6 3 10 8 10 11 0 2 -4 4 -10 4 -5 0 -10
-5 -10 -11z"/>
<path d="M85 750 c-3 -5 1 -10 10 -10 9 0 13 5 10 10 -3 6 -8 10 -10 10 -2 0
-7 -4 -10 -10z"/>
<path d="M650 680 c0 -5 5 -10 10 -10 6 0 10 5 10 10 0 6 -4 10 -10 10 -5 0
-10 -4 -10 -10z"/>
<path d="M655 630 c-3 -5 -1 -10 4 -10 6 0 11 5 11 10 0 6 -2 10 -4 10 -3 0
-8 -4 -11 -10z"/>
<path d="M1050 580 c0 -5 5 -10 11 -10 5 0 7 5 4 10 -3 6 -8 10 -11 10 -2 0
-4 -4 -4 -10z"/>
<path d="M1110 564 c0 -8 5 -12 10 -9 6 4 8 11 5 16 -9 14 -15 11 -15 -7z"/>
<path d="M290 474 c0 -8 5 -12 10 -9 6 3 10 10 10 16 0 5 -4 9 -10 9 -5 0 -10
-7 -10 -16z"/>
</g>
</svg>
